<svg xmlns="http://www.w3.org/2000/svg" width="880" height="420" viewBox="0 0 880 420" font-family="-apple-system,Segoe UI,Roboto,sans-serif" font-size="12">
<rect width="880" height="420" fill="#ffffff"/>
<line x1="56" y1="376.0" x2="730" y2="376.0" stroke="#e6e8ef"/>
<text x="48" y="380.0" text-anchor="end" fill="#555">$0</text>
<line x1="56" y1="290.8" x2="730" y2="290.8" stroke="#e6e8ef"/>
<text x="48" y="294.8" text-anchor="end" fill="#555">$2</text>
<line x1="56" y1="205.5" x2="730" y2="205.5" stroke="#e6e8ef"/>
<text x="48" y="209.5" text-anchor="end" fill="#555">$4</text>
<line x1="56" y1="120.3" x2="730" y2="120.3" stroke="#e6e8ef"/>
<text x="48" y="124.3" text-anchor="end" fill="#555">$6</text>
<line x1="56" y1="35.0" x2="730" y2="35.0" stroke="#e6e8ef"/>
<text x="48" y="39.0" text-anchor="end" fill="#555">$8</text>
<line x1="56.0" y1="28" x2="56.0" y2="376" stroke="#f0f1f5"/>
<text x="56.0" y="394" text-anchor="middle" fill="#555">3m</text>
<line x1="211.9" y1="28" x2="211.9" y2="376" stroke="#f0f1f5"/>
<text x="211.9" y="394" text-anchor="middle" fill="#555">6m</text>
<line x1="367.9" y1="28" x2="367.9" y2="376" stroke="#f0f1f5"/>
<text x="367.9" y="394" text-anchor="middle" fill="#555">12m</text>
<line x1="459.1" y1="28" x2="459.1" y2="376" stroke="#f0f1f5"/>
<text x="459.1" y="394" text-anchor="middle" fill="#555">18m</text>
<line x1="523.8" y1="28" x2="523.8" y2="376" stroke="#f0f1f5"/>
<text x="523.8" y="394" text-anchor="middle" fill="#555">24m</text>
<line x1="615.1" y1="28" x2="615.1" y2="376" stroke="#f0f1f5"/>
<text x="615.1" y="394" text-anchor="middle" fill="#555">36m</text>
<line x1="730.0" y1="28" x2="730.0" y2="376" stroke="#f0f1f5"/>
<text x="730.0" y="394" text-anchor="middle" fill="#555">60m</text>
<text x="393" y="412" text-anchor="middle" fill="#333">commitment length (log scale)</text>
<text x="14" y="202" transform="rotate(-90 14 202)" text-anchor="middle" fill="#333">$/GPU-hr, 0% prepay, as-of 2026-09-15</text>
<path d="M56.0,271.1 L211.9,263.5 L367.9,266.0 L523.8,278.0" fill="none" stroke="#4a90d9" stroke-width="2.2"/>
<circle cx="56.0" cy="271.1" r="4.0" fill="#ffffff" stroke="#4a90d9" stroke-width="2"><title>H100 3m: $2.46 (thin)</title></circle>
<circle cx="211.9" cy="263.5" r="4.0" fill="#ffffff" stroke="#4a90d9" stroke-width="2"><title>H100 6m: $2.64 (thin)</title></circle>
<circle cx="367.9" cy="266.0" r="4.5" fill="#4a90d9" stroke="#4a90d9" stroke-width="2"><title>H100 12m: $2.58 (good)</title></circle>
<circle cx="523.8" cy="278.0" r="4.0" fill="#ffffff" stroke="#4a90d9" stroke-width="2"><title>H100 24m: $2.30 (thin)</title></circle>
<rect x="746" y="23" width="14" height="3" fill="#4a90d9"/>
<text x="766" y="28" fill="#222">H100</text>
<path d="M56.0,240.9 L211.9,247.3 L367.9,249.4 L459.1,261.3" fill="none" stroke="#7b61ff" stroke-width="2.2"/>
<circle cx="56.0" cy="240.9" r="4.0" fill="#ffffff" stroke="#7b61ff" stroke-width="2"><title>H200 3m: $3.17 (thin)</title></circle>
<circle cx="211.9" cy="247.3" r="4.0" fill="#ffffff" stroke="#7b61ff" stroke-width="2"><title>H200 6m: $3.02 (thin)</title></circle>
<circle cx="367.9" cy="249.4" r="4.5" fill="#7b61ff" stroke="#7b61ff" stroke-width="2"><title>H200 12m: $2.97 (good)</title></circle>
<circle cx="459.1" cy="261.3" r="4.0" fill="#ffffff" stroke="#7b61ff" stroke-width="2"><title>H200 18m: $2.69 (thin)</title></circle>
<rect x="746" y="41" width="14" height="3" fill="#7b61ff"/>
<text x="766" y="46" fill="#222">H200</text>
<path d="M56.0,165.9 L211.9,157.8 L367.9,155.2 L523.8,172.3 L615.1,183.3" fill="none" stroke="#00b97a" stroke-width="2.2"/>
<circle cx="56.0" cy="165.9" r="4.0" fill="#ffffff" stroke="#00b97a" stroke-width="2"><title>B200 3m: $4.93 (thin)</title></circle>
<circle cx="211.9" cy="157.8" r="4.0" fill="#ffffff" stroke="#00b97a" stroke-width="2"><title>B200 6m: $5.12 (thin)</title></circle>
<circle cx="367.9" cy="155.2" r="4.5" fill="#00b97a" stroke="#00b97a" stroke-width="2"><title>B200 12m: $5.18 (good)</title></circle>
<circle cx="523.8" cy="172.3" r="4.0" fill="#ffffff" stroke="#00b97a" stroke-width="2"><title>B200 24m: $4.78 (thin)</title></circle>
<circle cx="615.1" cy="183.3" r="4.0" fill="#ffffff" stroke="#00b97a" stroke-width="2"><title>B200 36m: $4.52 (thin)</title></circle>
<rect x="746" y="59" width="14" height="3" fill="#00b97a"/>
<text x="766" y="64" fill="#222">B200</text>
<path d="M56.0,157.3 L367.9,142.4 L523.8,139.0 L615.1,166.7" fill="none" stroke="#f5c842" stroke-width="2.2"/>
<circle cx="56.0" cy="157.3" r="4.0" fill="#ffffff" stroke="#f5c842" stroke-width="2"><title>B300 3m: $5.13 (thin)</title></circle>
<circle cx="367.9" cy="142.4" r="4.5" fill="#f5c842" stroke="#f5c842" stroke-width="2"><title>B300 12m: $5.48 (good)</title></circle>
<circle cx="523.8" cy="139.0" r="4.5" fill="#f5c842" stroke="#f5c842" stroke-width="2"><title>B300 24m: $5.56 (good)</title></circle>
<circle cx="615.1" cy="166.7" r="4.5" fill="#f5c842" stroke="#f5c842" stroke-width="2"><title>B300 36m: $4.91 (good)</title></circle>
<rect x="746" y="77" width="14" height="3" fill="#f5c842"/>
<text x="766" y="82" fill="#222">B300</text>
<path d="M367.9,65.3 L615.1,147.1 L730.0,177.8" fill="none" stroke="#e05252" stroke-width="2.2"/>
<circle cx="367.9" cy="65.3" r="4.5" fill="#e05252" stroke="#e05252" stroke-width="2"><title>GB300 12m: $7.29 (good)</title></circle>
<circle cx="615.1" cy="147.1" r="4.5" fill="#e05252" stroke="#e05252" stroke-width="2"><title>GB300 36m: $5.37 (good)</title></circle>
<circle cx="730.0" cy="177.8" r="4.5" fill="#e05252" stroke="#e05252" stroke-width="2"><title>GB300 60m: $4.65 (good)</title></circle>
<rect x="746" y="95" width="14" height="3" fill="#e05252"/>
<text x="766" y="100" fill="#222">GB300</text>
<path d="M615.1,71.3 L730.0,70.0" fill="none" stroke="#c94fb0" stroke-width="2.2"/>
<circle cx="615.1" cy="71.3" r="4.0" fill="#ffffff" stroke="#c94fb0" stroke-width="2"><title>VR 36m: $7.15 (thin)</title></circle>
<circle cx="730.0" cy="70.0" r="4.0" fill="#ffffff" stroke="#c94fb0" stroke-width="2"><title>VR 60m: $7.18 (thin)</title></circle>
<rect x="746" y="113" width="14" height="3" fill="#c94fb0"/>
<text x="766" y="118" fill="#222">VR</text>
<text x="746" y="146" fill="#666" font-size="11">filled = good (n≥6)</text>
<text x="746" y="162" fill="#666" font-size="11">hollow = thin (n 3–5)</text>
<text x="746" y="178" fill="#666" font-size="11">missing = suppressed</text>
</svg>